<svg width="16" height="16" viewBox="0 0 16 16" fill="none" xmlns="http://www.w3.org/2000/svg">
<rect width="16" height="16" rx="2" fill="black"/>
<path d="M4.28076 10.3105H3.17334L3.08105 3.45508H4.37305L4.28076 10.3105ZM3.72705 13.0791C3.57764 13.0791 3.43701 13.0396 3.30518 12.9604C3.17334 12.8813 3.07007 12.7759 2.99536 12.644C2.92065 12.5122 2.8833 12.3716 2.8833 12.2222C2.8833 12.0728 2.92065 11.9321 2.99536 11.8003C3.07007 11.6685 3.17334 11.5652 3.30518 11.4905C3.43701 11.4158 3.57764 11.3784 3.72705 11.3784C3.87646 11.3784 4.01709 11.4158 4.14893 11.4905C4.28076 11.5652 4.38403 11.6685 4.45874 11.8003C4.53345 11.9321 4.5708 12.0728 4.5708 12.2222C4.5708 12.3716 4.53345 12.5122 4.45874 12.644C4.38403 12.7759 4.28076 12.8813 4.14893 12.9604C4.01709 13.0396 3.87646 13.0791 3.72705 13.0791ZM7.74805 10.3105H6.64062L6.54834 3.45508H7.84033L7.74805 10.3105ZM7.19434 13.0791C7.04492 13.0791 6.9043 13.0396 6.77246 12.9604C6.64062 12.8813 6.53735 12.7759 6.46265 12.644C6.38794 12.5122 6.35059 12.3716 6.35059 12.2222C6.35059 12.0728 6.38794 11.9321 6.46265 11.8003C6.53735 11.6685 6.64062 11.5652 6.77246 11.4905C6.9043 11.4158 7.04492 11.3784 7.19434 11.3784C7.34375 11.3784 7.48438 11.4158 7.61621 11.4905C7.74805 11.5652 7.85132 11.6685 7.92603 11.8003C8.00073 11.9321 8.03809 12.0728 8.03809 12.2222C8.03809 12.3716 8.00073 12.5122 7.92603 12.644C7.85132 12.7759 7.74805 12.8813 7.61621 12.9604C7.48438 13.0396 7.34375 13.0791 7.19434 13.0791Z" fill="white"/>
</svg>
