<svg width="52" height="36" viewBox="0 0 52 36" fill="none" xmlns="http://www.w3.org/2000/svg">
<rect x="10" y="10" width="9" height="16" rx="1" fill="black"/>
<path d="M13.2808 20.3105H12.1733L12.0811 13.4551H13.373L13.2808 20.3105ZM12.7271 23.0791C12.5776 23.0791 12.437 23.0396 12.3052 22.9604C12.1733 22.8813 12.0701 22.7759 11.9954 22.644C11.9207 22.5122 11.8833 22.3716 11.8833 22.2222C11.8833 22.0728 11.9207 21.9321 11.9954 21.8003C12.0701 21.6685 12.1733 21.5652 12.3052 21.4905C12.437 21.4158 12.5776 21.3784 12.7271 21.3784C12.8765 21.3784 13.0171 21.4158 13.1489 21.4905C13.2808 21.5652 13.384 21.6685 13.4587 21.8003C13.5334 21.9321 13.5708 22.0728 13.5708 22.2222C13.5708 22.3716 13.5334 22.5122 13.4587 22.644C13.384 22.7759 13.2808 22.8813 13.1489 22.9604C13.0171 23.0396 12.8765 23.0791 12.7271 23.0791ZM16.748 20.3105H15.6406L15.5483 13.4551H16.8403L16.748 20.3105ZM16.1943 23.0791C16.0449 23.0791 15.9043 23.0396 15.7725 22.9604C15.6406 22.8813 15.5374 22.7759 15.4626 22.644C15.3879 22.5122 15.3506 22.3716 15.3506 22.2222C15.3506 22.0728 15.3879 21.9321 15.4626 21.8003C15.5374 21.6685 15.6406 21.5652 15.7725 21.4905C15.9043 21.4158 16.0449 21.3784 16.1943 21.3784C16.3438 21.3784 16.4844 21.4158 16.6162 21.4905C16.748 21.5652 16.8513 21.6685 16.926 21.8003C17.0007 21.9321 17.0381 22.0728 17.0381 22.2222C17.0381 22.3716 17.0007 22.5122 16.926 22.644C16.8513 22.7759 16.748 22.8813 16.6162 22.9604C16.4844 23.0396 16.3438 23.0791 16.1943 23.0791Z" fill="white"/>
<mask id="path-3-inside-1_12_46" fill="white">
<path d="M24.8848 17.0205H21.292V16.1064H24.8848V17.0205ZM23.4375 14.4561V21.0195C23.4375 21.2988 23.4777 21.5125 23.5581 21.6606C23.6385 21.8088 23.7443 21.9103 23.8755 21.9653C24.0067 22.0203 24.1611 22.0479 24.3389 22.0479C24.5505 22.0479 24.7663 22.0394 24.9863 22.0225V23.0381C24.7663 23.0719 24.5124 23.0889 24.2246 23.0889C23.903 23.0889 23.5983 23.0212 23.3105 22.8857C23.0228 22.7503 22.7879 22.5472 22.606 22.2764C22.424 22.0055 22.333 21.6797 22.333 21.2988V14.4561H23.4375ZM26.9922 25.5898C26.7721 25.5898 26.569 25.5814 26.3828 25.5645V24.5869L26.5859 24.5996C26.6536 24.6081 26.7637 24.6123 26.916 24.6123C27.1022 24.6123 27.2567 24.5933 27.3794 24.5552C27.5021 24.5171 27.6248 24.4219 27.7476 24.2695C27.8703 24.1172 27.9867 23.8844 28.0967 23.5713L28.2998 23.0508L25.748 16.1064H26.9414L28.8203 21.5781H28.8965L30.7754 16.1064H31.9688L29.0488 23.9902C28.8457 24.5234 28.5749 24.9233 28.2363 25.1899C27.8978 25.4565 27.4831 25.5898 26.9922 25.5898ZM33.1748 16.1064H34.2285V17.1982H34.3555L34.3936 17.1475C34.512 16.9528 34.6411 16.7772 34.7808 16.6206C34.9204 16.464 35.1193 16.3244 35.3774 16.2017C35.6356 16.0789 35.9593 16.0176 36.3486 16.0176C36.9242 16.0176 37.4341 16.1615 37.8784 16.4492C38.3228 16.737 38.6676 17.1496 38.9131 17.687C39.1585 18.2244 39.2812 18.8529 39.2812 19.5723C39.2812 20.2832 39.1585 20.9095 38.9131 21.4512C38.6676 21.9928 38.3228 22.4097 37.8784 22.7017C37.4341 22.9937 36.9284 23.1396 36.3613 23.1396C35.972 23.1396 35.644 23.0741 35.3774 22.9429C35.1108 22.8117 34.9077 22.6678 34.7681 22.5112C34.6284 22.3547 34.4951 22.1748 34.3682 21.9717L34.3555 21.9463H34.2666V25.5898H33.1748V16.1064ZM34.2412 19.5469C34.2412 20.0632 34.3174 20.5181 34.4697 20.9116C34.6221 21.3052 34.8464 21.612 35.1426 21.832C35.4388 22.0521 35.7943 22.1621 36.209 22.1621C36.6322 22.1621 36.994 22.0479 37.2944 21.8193C37.5949 21.5908 37.8192 21.2798 37.9673 20.8862C38.1154 20.4927 38.1895 20.0462 38.1895 19.5469C38.1895 19.056 38.1154 18.618 37.9673 18.2329C37.8192 17.8478 37.597 17.5452 37.3008 17.3252C37.0046 17.1051 36.6406 16.9951 36.209 16.9951C35.7858 16.9951 35.4282 17.1009 35.1362 17.3125C34.8442 17.5241 34.6221 17.8203 34.4697 18.2012C34.3174 18.582 34.2412 19.0306 34.2412 19.5469ZM43.5977 23.1396C42.946 23.1396 42.3768 22.9937 41.8901 22.7017C41.4035 22.4097 41.029 21.9971 40.7666 21.4639C40.5042 20.9307 40.373 20.3128 40.373 19.6104C40.373 18.9079 40.5042 18.2837 40.7666 17.7378C41.029 17.1919 41.395 16.7687 41.8647 16.4683C42.3345 16.1678 42.8783 16.0176 43.4961 16.0176C44.0208 16.0176 44.5075 16.1318 44.9561 16.3604C45.4046 16.5889 45.7686 16.9613 46.0479 17.4775C46.3271 17.9938 46.4668 18.654 46.4668 19.458V19.915H41.1348V18.9883H45.3623C45.3623 18.599 45.2861 18.2541 45.1338 17.9536C44.9814 17.6532 44.7635 17.4162 44.48 17.2427C44.1965 17.0692 43.8685 16.9824 43.4961 16.9824C43.0898 16.9824 42.7344 17.0819 42.4297 17.2808C42.125 17.4797 41.888 17.7463 41.7188 18.0806C41.5495 18.4149 41.4648 18.7725 41.4648 19.1533V19.7754C41.4648 20.2832 41.5537 20.717 41.7314 21.0767C41.9092 21.4364 42.1589 21.7093 42.4805 21.8955C42.8021 22.0817 43.1745 22.1748 43.5977 22.1748C43.86 22.1748 44.097 22.1388 44.3086 22.0669C44.5202 21.995 44.7 21.9019 44.8481 21.7876C44.9963 21.6733 45.1126 21.54 45.1973 21.3877H46.3652C46.2552 21.7347 46.0732 22.0394 45.8193 22.3018C45.5654 22.5641 45.248 22.7694 44.8672 22.9175C44.4863 23.0656 44.0632 23.1396 43.5977 23.1396Z"/>
</mask>
<path d="M24.8848 17.0205H21.292V16.1064H24.8848V17.0205ZM23.4375 14.4561V21.0195C23.4375 21.2988 23.4777 21.5125 23.5581 21.6606C23.6385 21.8088 23.7443 21.9103 23.8755 21.9653C24.0067 22.0203 24.1611 22.0479 24.3389 22.0479C24.5505 22.0479 24.7663 22.0394 24.9863 22.0225V23.0381C24.7663 23.0719 24.5124 23.0889 24.2246 23.0889C23.903 23.0889 23.5983 23.0212 23.3105 22.8857C23.0228 22.7503 22.7879 22.5472 22.606 22.2764C22.424 22.0055 22.333 21.6797 22.333 21.2988V14.4561H23.4375ZM26.9922 25.5898C26.7721 25.5898 26.569 25.5814 26.3828 25.5645V24.5869L26.5859 24.5996C26.6536 24.6081 26.7637 24.6123 26.916 24.6123C27.1022 24.6123 27.2567 24.5933 27.3794 24.5552C27.5021 24.5171 27.6248 24.4219 27.7476 24.2695C27.8703 24.1172 27.9867 23.8844 28.0967 23.5713L28.2998 23.0508L25.748 16.1064H26.9414L28.8203 21.5781H28.8965L30.7754 16.1064H31.9688L29.0488 23.9902C28.8457 24.5234 28.5749 24.9233 28.2363 25.1899C27.8978 25.4565 27.4831 25.5898 26.9922 25.5898ZM33.1748 16.1064H34.2285V17.1982H34.3555L34.3936 17.1475C34.512 16.9528 34.6411 16.7772 34.7808 16.6206C34.9204 16.464 35.1193 16.3244 35.3774 16.2017C35.6356 16.0789 35.9593 16.0176 36.3486 16.0176C36.9242 16.0176 37.4341 16.1615 37.8784 16.4492C38.3228 16.737 38.6676 17.1496 38.9131 17.687C39.1585 18.2244 39.2812 18.8529 39.2812 19.5723C39.2812 20.2832 39.1585 20.9095 38.9131 21.4512C38.6676 21.9928 38.3228 22.4097 37.8784 22.7017C37.4341 22.9937 36.9284 23.1396 36.3613 23.1396C35.972 23.1396 35.644 23.0741 35.3774 22.9429C35.1108 22.8117 34.9077 22.6678 34.7681 22.5112C34.6284 22.3547 34.4951 22.1748 34.3682 21.9717L34.3555 21.9463H34.2666V25.5898H33.1748V16.1064ZM34.2412 19.5469C34.2412 20.0632 34.3174 20.5181 34.4697 20.9116C34.6221 21.3052 34.8464 21.612 35.1426 21.832C35.4388 22.0521 35.7943 22.1621 36.209 22.1621C36.6322 22.1621 36.994 22.0479 37.2944 21.8193C37.5949 21.5908 37.8192 21.2798 37.9673 20.8862C38.1154 20.4927 38.1895 20.0462 38.1895 19.5469C38.1895 19.056 38.1154 18.618 37.9673 18.2329C37.8192 17.8478 37.597 17.5452 37.3008 17.3252C37.0046 17.1051 36.6406 16.9951 36.209 16.9951C35.7858 16.9951 35.4282 17.1009 35.1362 17.3125C34.8442 17.5241 34.6221 17.8203 34.4697 18.2012C34.3174 18.582 34.2412 19.0306 34.2412 19.5469ZM43.5977 23.1396C42.946 23.1396 42.3768 22.9937 41.8901 22.7017C41.4035 22.4097 41.029 21.9971 40.7666 21.4639C40.5042 20.9307 40.373 20.3128 40.373 19.6104C40.373 18.9079 40.5042 18.2837 40.7666 17.7378C41.029 17.1919 41.395 16.7687 41.8647 16.4683C42.3345 16.1678 42.8783 16.0176 43.4961 16.0176C44.0208 16.0176 44.5075 16.1318 44.9561 16.3604C45.4046 16.5889 45.7686 16.9613 46.0479 17.4775C46.3271 17.9938 46.4668 18.654 46.4668 19.458V19.915H41.1348V18.9883H45.3623C45.3623 18.599 45.2861 18.2541 45.1338 17.9536C44.9814 17.6532 44.7635 17.4162 44.48 17.2427C44.1965 17.0692 43.8685 16.9824 43.4961 16.9824C43.0898 16.9824 42.7344 17.0819 42.4297 17.2808C42.125 17.4797 41.888 17.7463 41.7188 18.0806C41.5495 18.4149 41.4648 18.7725 41.4648 19.1533V19.7754C41.4648 20.2832 41.5537 20.717 41.7314 21.0767C41.9092 21.4364 42.1589 21.7093 42.4805 21.8955C42.8021 22.0817 43.1745 22.1748 43.5977 22.1748C43.86 22.1748 44.097 22.1388 44.3086 22.0669C44.5202 21.995 44.7 21.9019 44.8481 21.7876C44.9963 21.6733 45.1126 21.54 45.1973 21.3877H46.3652C46.2552 21.7347 46.0732 22.0394 45.8193 22.3018C45.5654 22.5641 45.248 22.7694 44.8672 22.9175C44.4863 23.0656 44.0632 23.1396 43.5977 23.1396Z" fill="black"/>
<path d="M24.8848 17.0205V18.0205H25.8848V17.0205H24.8848ZM21.292 17.0205H20.292V18.0205H21.292V17.0205ZM21.292 16.1064V15.1064H20.292V16.1064H21.292ZM24.8848 16.1064H25.8848V15.1064H24.8848V16.1064ZM23.4375 14.4561H24.4375V13.4561H23.4375V14.4561ZM24.9863 22.0225H25.9863V20.9426L24.9096 21.0254L24.9863 22.0225ZM24.9863 23.0381L25.1384 24.0265L25.9863 23.896V23.0381H24.9863ZM22.606 22.2764L21.7759 22.8341L22.606 22.2764ZM22.333 14.4561V13.4561H21.333V14.4561H22.333ZM24.8848 17.0205V16.0205H21.292V17.0205V18.0205H24.8848V17.0205ZM21.292 17.0205H22.292V16.1064H21.292H20.292V17.0205H21.292ZM21.292 16.1064V17.1064H24.8848V16.1064V15.1064H21.292V16.1064ZM24.8848 16.1064H23.8848V17.0205H24.8848H25.8848V16.1064H24.8848ZM23.4375 14.4561H22.4375V21.0195H23.4375H24.4375V14.4561H23.4375ZM23.4375 21.0195H22.4375C22.4375 21.3686 22.4833 21.7767 22.6793 22.1377L23.5581 21.6606L24.437 21.1836C24.4584 21.223 24.4566 21.2371 24.4504 21.2044C24.4445 21.1728 24.4375 21.1137 24.4375 21.0195H23.4375ZM23.5581 21.6606L22.6793 22.1377C22.8474 22.4474 23.1106 22.7289 23.4888 22.8875L23.8755 21.9653L24.2622 21.0431C24.3136 21.0647 24.3573 21.0948 24.3903 21.1265C24.4218 21.1568 24.4352 21.1803 24.437 21.1836L23.5581 21.6606ZM23.8755 21.9653L23.4888 22.8875C23.7688 23.005 24.0604 23.0479 24.3389 23.0479V22.0479V21.0479C24.2619 21.0479 24.2445 21.0357 24.2622 21.0431L23.8755 21.9653ZM24.3389 22.0479V23.0479C24.5771 23.0479 24.8185 23.0383 25.063 23.0195L24.9863 22.0225L24.9096 21.0254C24.714 21.0405 24.5238 21.0479 24.3389 21.0479V22.0479ZM24.9863 22.0225H23.9863V23.0381H24.9863H25.9863V22.0225H24.9863ZM24.9863 23.0381L24.8343 22.0497C24.6766 22.074 24.4753 22.0889 24.2246 22.0889V23.0889V24.0889C24.5494 24.0889 24.8559 24.0699 25.1384 24.0265L24.9863 23.0381ZM24.2246 23.0889V22.0889C24.0485 22.0889 23.8894 22.0529 23.7363 21.9809L23.3105 22.8857L22.8847 23.7906C23.3073 23.9894 23.7575 24.0889 24.2246 24.0889V23.0889ZM23.3105 22.8857L23.7363 21.9809C23.6167 21.9246 23.5198 21.8435 23.436 21.7187L22.606 22.2764L21.7759 22.8341C22.056 23.2509 22.4289 23.5761 22.8847 23.7906L23.3105 22.8857ZM22.606 22.2764L23.436 21.7187C23.3824 21.6389 23.333 21.5151 23.333 21.2988H22.333H21.333C21.333 21.8443 21.4656 22.3722 21.7759 22.8341L22.606 22.2764ZM22.333 21.2988H23.333V14.4561H22.333H21.333V21.2988H22.333ZM22.333 14.4561V15.4561H23.4375V14.4561V13.4561H22.333V14.4561ZM26.3828 25.5645H25.3828V26.4777L26.2923 26.5603L26.3828 25.5645ZM26.3828 24.5869L26.4452 23.5889L25.3828 23.5225V24.5869H26.3828ZM26.5859 24.5996L26.71 23.6073L26.6792 23.6035L26.6483 23.6016L26.5859 24.5996ZM28.0967 23.5713L27.1651 23.2077L27.1589 23.2237L27.1532 23.2398L28.0967 23.5713ZM28.2998 23.0508L29.2314 23.4143L29.3691 23.0614L29.2384 22.7059L28.2998 23.0508ZM25.748 16.1064V15.1064H24.3152L24.8094 16.4514L25.748 16.1064ZM26.9414 16.1064L27.8872 15.7817L27.6553 15.1064H26.9414V16.1064ZM28.8203 21.5781L27.8745 21.9029L28.1064 22.5781H28.8203V21.5781ZM28.8965 21.5781V22.5781H29.6104L29.8423 21.9029L28.8965 21.5781ZM30.7754 16.1064V15.1064H30.0615L29.8296 15.7817L30.7754 16.1064ZM31.9688 16.1064L32.9065 16.4538L33.4055 15.1064H31.9688V16.1064ZM29.0488 23.9902L29.9834 24.3462L29.9866 24.3375L29.0488 23.9902ZM26.9922 25.5898V24.5898C26.7972 24.5898 26.6247 24.5823 26.4733 24.5686L26.3828 25.5645L26.2923 26.5603C26.5133 26.5804 26.747 26.5898 26.9922 26.5898V25.5898ZM26.3828 25.5645H27.3828V24.5869H26.3828H25.3828V25.5645H26.3828ZM26.3828 24.5869L26.3204 25.585L26.5236 25.5977L26.5859 24.5996L26.6483 23.6016L26.4452 23.5889L26.3828 24.5869ZM26.5859 24.5996L26.4619 25.5919C26.5962 25.6087 26.76 25.6123 26.916 25.6123V24.6123V23.6123C26.8482 23.6123 26.7961 23.6113 26.7577 23.6099C26.7162 23.6083 26.7036 23.6065 26.71 23.6073L26.5859 24.5996ZM26.916 24.6123V25.6123C27.1618 25.6123 27.4246 25.5882 27.6758 25.5102L27.3794 24.5552L27.083 23.6001C27.0888 23.5983 27.0792 23.6018 27.0491 23.6055C27.0195 23.6092 26.9759 23.6123 26.916 23.6123V24.6123ZM27.3794 24.5552L27.6758 25.5102C28.0635 25.3899 28.3397 25.1285 28.5263 24.8969L27.7476 24.2695L26.9688 23.6422C26.9442 23.6727 26.937 23.6756 26.9505 23.6651C26.9647 23.6541 27.0086 23.6232 27.083 23.6001L27.3794 24.5552ZM27.7476 24.2695L28.5263 24.8969C28.7531 24.6153 28.9149 24.2593 29.0401 23.9028L28.0967 23.5713L27.1532 23.2398C27.0584 23.5096 26.9874 23.6191 26.9688 23.6422L27.7476 24.2695ZM28.0967 23.5713L29.0283 23.9348L29.2314 23.4143L28.2998 23.0508L27.3682 22.6872L27.1651 23.2077L28.0967 23.5713ZM28.2998 23.0508L29.2384 22.7059L26.6867 15.7615L25.748 16.1064L24.8094 16.4514L27.3612 23.3957L28.2998 23.0508ZM25.748 16.1064V17.1064H26.9414V16.1064V15.1064H25.748V16.1064ZM26.9414 16.1064L25.9956 16.4312L27.8745 21.9029L28.8203 21.5781L29.7661 21.2534L27.8872 15.7817L26.9414 16.1064ZM28.8203 21.5781V22.5781H28.8965V21.5781V20.5781H28.8203V21.5781ZM28.8965 21.5781L29.8423 21.9029L31.7212 16.4312L30.7754 16.1064L29.8296 15.7817L27.9507 21.2534L28.8965 21.5781ZM30.7754 16.1064V17.1064H31.9688V16.1064V15.1064H30.7754V16.1064ZM31.9688 16.1064L31.031 15.7591L28.1111 23.6429L29.0488 23.9902L29.9866 24.3375L32.9065 16.4538L31.9688 16.1064ZM29.0488 23.9902L28.1143 23.6342C27.9553 24.0516 27.775 24.2804 27.6176 24.4043L28.2363 25.1899L28.855 25.9756C29.3747 25.5663 29.7361 24.9953 29.9833 24.3462L29.0488 23.9902ZM28.2363 25.1899L27.6176 24.4043C27.4796 24.513 27.2915 24.5898 26.9922 24.5898V25.5898V26.5898C27.6747 26.5898 28.316 26.4001 28.855 25.9756L28.2363 25.1899ZM33.1748 16.1064V15.1064H32.1748V16.1064H33.1748ZM34.2285 16.1064H35.2285V15.1064H34.2285V16.1064ZM34.2285 17.1982H33.2285V18.1982H34.2285V17.1982ZM34.3555 17.1982V18.1982H34.8555L35.1555 17.7982L34.3555 17.1982ZM34.3936 17.1475L35.1936 17.7475L35.2226 17.7087L35.2478 17.6674L34.3936 17.1475ZM34.7808 16.6206L35.5271 17.2862L34.7808 16.6206ZM37.8784 16.4492L38.422 15.6099L37.8784 16.4492ZM38.9131 17.687L38.0035 18.1024L38.9131 17.687ZM38.9131 21.4512L38.0022 21.0384L38.9131 21.4512ZM34.7681 22.5112L34.0218 23.1768L34.7681 22.5112ZM34.3682 21.9717L33.4737 22.4189L33.495 22.4614L33.5202 22.5017L34.3682 21.9717ZM34.3555 21.9463L35.2499 21.4991L34.9735 20.9463H34.3555V21.9463ZM34.2666 21.9463V20.9463H33.2666V21.9463H34.2666ZM34.2666 25.5898V26.5898H35.2666V25.5898H34.2666ZM33.1748 25.5898H32.1748V26.5898H33.1748V25.5898ZM33.1748 16.1064V17.1064H34.2285V16.1064V15.1064H33.1748V16.1064ZM34.2285 16.1064H33.2285V17.1982H34.2285H35.2285V16.1064H34.2285ZM34.2285 17.1982V18.1982H34.3555V17.1982V16.1982H34.2285V17.1982ZM34.3555 17.1982L35.1555 17.7982L35.1936 17.7475L34.3936 17.1475L33.5936 16.5475L33.5555 16.5982L34.3555 17.1982ZM34.3936 17.1475L35.2478 17.6674C35.3374 17.5201 35.431 17.3939 35.5271 17.2862L34.7808 16.6206L34.0345 15.955C33.8512 16.1604 33.6867 16.3855 33.5394 16.6275L34.3936 17.1475ZM34.7808 16.6206L35.5271 17.2862C35.5521 17.2582 35.6281 17.1897 35.8068 17.1048L35.3774 16.2017L34.9481 15.2985C34.6105 15.459 34.2888 15.6699 34.0345 15.955L34.7808 16.6206ZM35.3774 16.2017L35.8068 17.1048C35.8914 17.0646 36.057 17.0176 36.3486 17.0176V16.0176V15.0176C35.8616 15.0176 35.3798 15.0933 34.9481 15.2985L35.3774 16.2017ZM36.3486 16.0176V17.0176C36.7488 17.0176 37.0665 17.1148 37.3348 17.2886L37.8784 16.4492L38.422 15.6099C37.8017 15.2081 37.0995 15.0176 36.3486 15.0176V16.0176ZM37.8784 16.4492L37.3348 17.2886C37.6011 17.461 37.8277 17.7175 38.0035 18.1024L38.9131 17.687L39.8227 17.2716C39.5076 16.5816 39.0444 16.0129 38.422 15.6099L37.8784 16.4492ZM38.9131 17.687L38.0035 18.1024C38.1778 18.4843 38.2812 18.9657 38.2812 19.5723H39.2812H40.2812C40.2812 18.7401 40.1392 17.9646 39.8227 17.2716L38.9131 17.687ZM39.2812 19.5723H38.2812C38.2812 20.1682 38.1786 20.6493 38.0022 21.0384L38.9131 21.4512L39.8239 21.8639C40.1385 21.1697 40.2812 20.3982 40.2812 19.5723H39.2812ZM38.9131 21.4512L38.0022 21.0384C37.8254 21.4288 37.5972 21.6899 37.3292 21.866L37.8784 22.7017L38.4276 23.5374C39.0484 23.1294 39.5099 22.5569 39.8239 21.8639L38.9131 21.4512ZM37.8784 22.7017L37.3292 21.866C37.059 22.0435 36.7468 22.1396 36.3613 22.1396V23.1396V24.1396C37.1099 24.1396 37.8091 23.9438 38.4276 23.5374L37.8784 22.7017ZM36.3613 23.1396V22.1396C36.0795 22.1396 35.9124 22.0916 35.8189 22.0456L35.3774 22.9429L34.9359 23.8401C35.3757 24.0565 35.8645 24.1396 36.3613 24.1396V23.1396ZM35.3774 22.9429L35.8189 22.0456C35.6235 21.9494 35.5405 21.875 35.5144 21.8456L34.7681 22.5112L34.0218 23.1768C34.2749 23.4607 34.5982 23.6739 34.9359 23.8401L35.3774 22.9429ZM34.7681 22.5112L35.5144 21.8456C35.4172 21.7367 35.3172 21.6034 35.2162 21.4417L34.3682 21.9717L33.5202 22.5017C33.673 22.7462 33.8396 22.9726 34.0218 23.1768L34.7681 22.5112ZM34.3682 21.9717L35.2626 21.5245L35.2499 21.4991L34.3555 21.9463L33.461 22.3935L33.4737 22.4189L34.3682 21.9717ZM34.3555 21.9463V20.9463H34.2666V21.9463V22.9463H34.3555V21.9463ZM34.2666 21.9463H33.2666V25.5898H34.2666H35.2666V21.9463H34.2666ZM34.2666 25.5898V24.5898H33.1748V25.5898V26.5898H34.2666V25.5898ZM33.1748 25.5898H34.1748V16.1064H33.1748H32.1748V25.5898H33.1748ZM34.2412 19.5469H33.2412C33.2412 20.1599 33.3315 20.7414 33.5372 21.2726L34.4697 20.9116L35.4023 20.5506C35.3032 20.2948 35.2412 19.9664 35.2412 19.5469H34.2412ZM34.4697 20.9116L33.5372 21.2726C33.7476 21.8163 34.0777 22.2867 34.5463 22.6348L35.1426 21.832L35.7389 21.0293C35.615 20.9373 35.4965 20.794 35.4023 20.5506L34.4697 20.9116ZM35.1426 21.832L34.5463 22.6348C35.036 22.9986 35.6073 23.1621 36.209 23.1621V22.1621V21.1621C35.9812 21.1621 35.8416 21.1056 35.7389 21.0293L35.1426 21.832ZM36.209 22.1621V23.1621C36.823 23.1621 37.4044 22.9921 37.8998 22.6153L37.2944 21.8193L36.6891 21.0234C36.5836 21.1036 36.4413 21.1621 36.209 21.1621V22.1621ZM37.2944 21.8193L37.8998 22.6153C38.3667 22.2602 38.6966 21.7874 38.9032 21.2385L37.9673 20.8862L37.0314 20.534C36.9417 20.7722 36.8231 20.9214 36.6891 21.0234L37.2944 21.8193ZM37.9673 20.8862L38.9032 21.2385C39.1008 20.7134 39.1895 20.1445 39.1895 19.5469H38.1895H37.1895C37.1895 19.948 37.13 20.272 37.0314 20.534L37.9673 20.8862ZM38.1895 19.5469H39.1895C39.1895 18.956 39.1003 18.3931 38.9006 17.8739L37.9673 18.2329L37.0339 18.5919C37.1305 18.8429 37.1895 19.156 37.1895 19.5469H38.1895ZM37.9673 18.2329L38.9006 17.8739C38.6928 17.3335 38.363 16.8685 37.8971 16.5225L37.3008 17.3252L36.7045 18.1279C36.831 18.222 36.9456 18.3621 37.0339 18.5919L37.9673 18.2329ZM37.3008 17.3252L37.8971 16.5225C37.4004 16.1535 36.8177 15.9951 36.209 15.9951V16.9951V17.9951C36.4636 17.9951 36.6087 18.0568 36.7045 18.1279L37.3008 17.3252ZM36.209 16.9951V15.9951C35.6128 15.9951 35.0403 16.1471 34.5495 16.5027L35.1362 17.3125L35.723 18.1222C35.8161 18.0548 35.9588 17.9951 36.209 17.9951V16.9951ZM35.1362 17.3125L34.5495 16.5027C34.0842 16.8399 33.7539 17.2982 33.5413 17.8298L34.4697 18.2012L35.3982 18.5726C35.4903 18.3424 35.6043 18.2083 35.723 18.1222L35.1362 17.3125ZM34.4697 18.2012L33.5413 17.8298C33.3312 18.355 33.2412 18.935 33.2412 19.5469H34.2412H35.2412C35.2412 19.1262 35.3036 18.8091 35.3982 18.5726L34.4697 18.2012ZM40.7666 21.4639L39.8693 21.9054L40.7666 21.4639ZM40.7666 17.7378L39.8653 17.3046L40.7666 17.7378ZM41.8647 16.4683L41.3259 15.6259L41.8647 16.4683ZM46.4668 19.915V20.915H47.4668V19.915H46.4668ZM41.1348 19.915H40.1348V20.915H41.1348V19.915ZM41.1348 18.9883V17.9883H40.1348V18.9883H41.1348ZM45.3623 18.9883V19.9883H46.3623V18.9883H45.3623ZM41.7314 21.0767L40.8349 21.5196L41.7314 21.0767ZM45.1973 21.3877V20.3877H44.6089L44.3231 20.9021L45.1973 21.3877ZM46.3652 21.3877L47.3185 21.6899L47.7314 20.3877H46.3652V21.3877ZM43.5977 23.1396V22.1396C43.0998 22.1396 42.714 22.0298 42.4046 21.8442L41.8901 22.7017L41.3756 23.5592C42.0396 23.9575 42.7921 24.1396 43.5977 24.1396V23.1396ZM41.8901 22.7017L42.4046 21.8442C42.0909 21.6559 41.8455 21.3915 41.6639 21.0224L40.7666 21.4639L39.8693 21.9054C40.2124 22.6026 40.7161 23.1634 41.3756 23.5592L41.8901 22.7017ZM40.7666 21.4639L41.6639 21.0224C41.4803 20.6494 41.373 20.1874 41.373 19.6104H40.373H39.373C39.373 20.4382 39.5281 21.212 39.8693 21.9054L40.7666 21.4639ZM40.373 19.6104H41.373C41.373 19.0339 41.4801 18.5617 41.6679 18.171L40.7666 17.7378L39.8653 17.3046C39.5283 18.0057 39.373 18.7818 39.373 19.6104H40.373ZM40.7666 17.7378L41.6679 18.171C41.857 17.7775 42.1038 17.5024 42.4036 17.3107L41.8647 16.4683L41.3259 15.6259C40.6863 16.035 40.2009 16.6063 39.8653 17.3046L40.7666 17.7378ZM41.8647 16.4683L42.4036 17.3107C42.6953 17.1241 43.0479 17.0176 43.4961 17.0176V16.0176V15.0176C42.7086 15.0176 41.9736 15.2116 41.3259 15.6259L41.8647 16.4683ZM43.4961 16.0176V17.0176C43.8699 17.0176 44.2002 17.0976 44.5021 17.2514L44.9561 16.3604L45.41 15.4693C44.8148 15.1661 44.1717 15.0176 43.4961 15.0176V16.0176ZM44.9561 16.3604L44.5021 17.2514C44.7415 17.3733 44.969 17.585 45.1683 17.9534L46.0479 17.4775L46.9274 17.0017C46.5681 16.3375 46.0678 15.8044 45.41 15.4693L44.9561 16.3604ZM46.0479 17.4775L45.1683 17.9534C45.3447 18.2795 45.4668 18.7616 45.4668 19.458H46.4668H47.4668C47.4668 18.5463 47.3096 17.7082 46.9274 17.0017L46.0479 17.4775ZM46.4668 19.458H45.4668V19.915H46.4668H47.4668V19.458H46.4668ZM46.4668 19.915V18.915H41.1348V19.915V20.915H46.4668V19.915ZM41.1348 19.915H42.1348V18.9883H41.1348H40.1348V19.915H41.1348ZM41.1348 18.9883V19.9883H45.3623V18.9883V17.9883H41.1348V18.9883ZM45.3623 18.9883H46.3623C46.3623 18.4663 46.2594 17.9623 46.0257 17.5014L45.1338 17.9536L44.2419 18.4058C44.3129 18.5458 44.3623 18.7316 44.3623 18.9883H45.3623ZM45.1338 17.9536L46.0257 17.5014C45.7907 17.038 45.4458 16.6613 45.0019 16.3897L44.48 17.2427L43.958 18.0956C44.0813 18.1711 44.1722 18.2683 44.2419 18.4058L45.1338 17.9536ZM44.48 17.2427L45.0019 16.3897C44.5429 16.1088 44.0299 15.9824 43.4961 15.9824V16.9824V17.9824C43.707 17.9824 43.85 18.0295 43.958 18.0956L44.48 17.2427ZM43.4961 16.9824V15.9824C42.9191 15.9824 42.3689 16.1263 41.8831 16.4434L42.4297 17.2808L42.9763 18.1181C43.0999 18.0375 43.2606 17.9824 43.4961 17.9824V16.9824ZM42.4297 17.2808L41.8831 16.4434C41.4268 16.7412 41.0727 17.1428 40.8266 17.6288L41.7188 18.0806L42.6109 18.5323C42.7033 18.3498 42.8232 18.2181 42.9763 18.1181L42.4297 17.2808ZM41.7188 18.0806L40.8266 17.6288C40.5852 18.1055 40.4648 18.6182 40.4648 19.1533H41.4648H42.4648C42.4648 18.9267 42.5137 18.7242 42.6109 18.5323L41.7188 18.0806ZM41.4648 19.1533H40.4648V19.7754H41.4648H42.4648V19.1533H41.4648ZM41.4648 19.7754H40.4648C40.4648 20.3972 40.5735 20.9906 40.8349 21.5196L41.7314 21.0767L42.628 20.6337C42.5339 20.4434 42.4648 20.1692 42.4648 19.7754H41.4648ZM41.7314 21.0767L40.8349 21.5196C41.0927 22.0413 41.4736 22.4681 41.9794 22.7609L42.4805 21.8955L42.9815 21.0301C42.8442 20.9506 42.7257 20.8314 42.628 20.6337L41.7314 21.0767ZM42.4805 21.8955L41.9794 22.7609C42.4734 23.0469 43.0234 23.1748 43.5977 23.1748V22.1748V21.1748C43.3256 21.1748 43.1307 21.1165 42.9815 21.0301L42.4805 21.8955ZM43.5977 22.1748V23.1748C43.9509 23.1748 44.299 23.1264 44.6305 23.0137L44.3086 22.0669L43.9867 21.1201C43.895 21.1513 43.7691 21.1748 43.5977 21.1748V22.1748ZM44.3086 22.0669L44.6305 23.0137C44.9266 22.913 45.2086 22.7725 45.4589 22.5794L44.8481 21.7876L44.2373 20.9958C44.1914 21.0312 44.1138 21.0769 43.9867 21.1201L44.3086 22.0669ZM44.8481 21.7876L45.4589 22.5794C45.7067 22.3882 45.916 22.1531 46.0714 21.8733L45.1973 21.3877L44.3231 20.9021C44.3093 20.927 44.2858 20.9585 44.2373 20.9958L44.8481 21.7876ZM45.1973 21.3877V22.3877H46.3652V21.3877V20.3877H45.1973V21.3877ZM46.3652 21.3877L45.412 21.0855C45.3489 21.2846 45.2474 21.4548 45.1007 21.6063L45.8193 22.3018L46.5379 22.9972C46.8991 22.624 47.1615 22.1848 47.3185 21.6899L46.3652 21.3877ZM45.8193 22.3018L45.1007 21.6063C44.9585 21.7534 44.7673 21.8834 44.5047 21.9855L44.8672 22.9175L45.2296 23.8495C45.7288 23.6554 46.1724 23.3749 46.5379 22.9972L45.8193 22.3018ZM44.8672 22.9175L44.5047 21.9855C44.2544 22.0828 43.9563 22.1396 43.5977 22.1396V23.1396V24.1396C44.17 24.1396 44.7183 24.0483 45.2296 23.8495L44.8672 22.9175Z" fill="black" mask="url(#path-3-inside-1_12_46)"/>
</svg>
